<?xml version="1.0" standalone="no"?>
<!DOCTYPE svg PUBLIC "-//W3C//DTD SVG 20010904//EN"
 "http://www.w3.org/TR/2001/REC-SVG-20010904/DTD/svg10.dtd">
<svg version="1.0" xmlns="http://www.w3.org/2000/svg"
 width="700.000000pt" height="589.000000pt" viewBox="0 0 700.000000 589.000000"
 preserveAspectRatio="xMidYMid meet">

<g transform="translate(0.000000,589.000000) scale(0.100000,-0.100000)"
fill="#000000" stroke="none">
<path d="M1638 4470 c-46 -14 -85 -48 -107 -93 -21 -42 -21 -56 -21 -599 l0
-557 -57 -16 c-196 -57 -357 -227 -398 -422 -10 -44 -15 -130 -15 -240 l0
-173 -25 -6 c-14 -3 -34 -18 -45 -31 -19 -25 -20 -42 -20 -480 0 -498 0 -498
59 -523 19 -7 58 -11 101 -8 56 3 75 8 93 26 21 21 22 32 27 220 l5 197 2265
0 2265 0 5 -197 c5 -188 6 -199 27 -220 18 -18 37 -23 93 -26 43 -3 82 1 101
8 59 25 59 26 59 514 0 265 -4 455 -10 470 -5 15 -25 34 -45 43 l-35 17 0 170
c0 110 -5 195 -15 239 -41 195 -202 365 -397 422 l-58 16 0 557 c0 546 0 556
-21 600 -13 26 -38 54 -62 70 l-41 27 -1850 2 c-1018 1 -1863 -2 -1878 -7z
m3728 -123 l24 -28 0 -545 0 -544 -104 0 -104 0 -4 103 c-6 154 -50 231 -163
283 l-50 24 -555 0 c-352 0 -569 -4 -592 -10 -53 -15 -118 -68 -153 -125 -28
-45 -30 -56 -33 -162 l-4 -113 -128 0 -128 0 -4 113 c-3 106 -5 117 -33 162
-35 57 -100 110 -153 125 -23 6 -240 10 -592 10 l-555 0 -50 -24 c-60 -28
-118 -86 -141 -141 -11 -25 -19 -78 -22 -142 l-5 -103 -103 0 -104 0 0 538 c0
574 0 574 50 599 20 10 399 12 1853 10 l1829 -2 24 -28z m-2189 -828 c29 -14
52 -35 68 -63 22 -37 25 -55 25 -134 l0 -92 -670 0 -670 0 0 99 c0 116 17 152
90 189 44 22 44 22 579 22 522 0 536 0 578 -21z m1808 -2 c22 -12 50 -38 62
-56 20 -30 23 -46 23 -132 l0 -99 -670 0 -670 0 0 92 c0 79 3 97 25 133 16 28
39 50 67 64 42 21 53 21 583 21 l540 0 40 -23z m475 -398 c36 -5 90 -21 120
-35 57 -26 160 -100 160 -115 0 -5 -960 -9 -2240 -9 -1437 0 -2240 3 -2240 10
0 15 100 87 161 114 30 14 79 30 109 35 80 13 3848 14 3930 0z m374 -314 c16
-41 20 -84 24 -242 l4 -193 -2362 0 -2362 0 4 188 c3 149 8 199 23 245 l19 57
2315 -2 2315 -3 20 -50z m-4604 -733 l0 -198 -35 -13 c-59 -21 -65 -45 -65
-256 l0 -185 -40 0 -40 0 0 425 0 425 90 0 90 0 0 -198z m4440 -2 l0 -200
-2170 0 -2170 0 0 200 0 200 2170 0 2170 0 0 -200z m280 -225 l0 -425 -40 0
-40 0 0 185 c0 118 -4 193 -12 209 -6 14 -28 34 -49 43 l-38 18 -1 198 0 197
90 0 90 0 0 -425z"/>
</g>
</svg>
