<svg width="16" height="16" viewBox="0 0 16 16" fill="none" xmlns="http://www.w3.org/2000/svg">
<path d="M11.0374 8.6039L10.734 8.9059C10.734 8.9059 10.012 9.62324 8.04204 7.66457C6.07204 5.7059 6.79404 4.98857 6.79404 4.98857L6.98471 4.7979C7.45604 4.3299 7.50071 3.5779 7.08938 3.02857L6.24937 1.90657C5.74004 1.22657 4.75671 1.13657 4.17338 1.71657L3.12671 2.75657C2.83804 3.04457 2.64471 3.41657 2.66804 3.8299C2.72804 4.8879 3.20671 7.16324 5.87604 9.8179C8.70738 12.6326 11.364 12.7446 12.45 12.6432C12.794 12.6112 13.0927 12.4366 13.3334 12.1966L14.28 11.2552C14.92 10.6199 14.74 9.52991 13.9214 9.08524L12.648 8.39257C12.1107 8.10124 11.4574 8.18657 11.0374 8.6039Z" fill="#152949"/>
</svg>
