<svg width="15" height="16" viewBox="0 0 15 16" fill="none" xmlns="http://www.w3.org/2000/svg">
<path fill-rule="evenodd" clip-rule="evenodd" d="M2.3 7.23499C2.3 4.91253 4.18273 3.0298 6.5052 3.0298C8.82766 3.0298 10.7104 4.91253 10.7104 7.23499C10.7104 9.55746 8.82766 11.4402 6.5052 11.4402C4.18273 11.4402 2.3 9.55746 2.3 7.23499ZM6.5052 0.729797C2.91248 0.729797 0 3.64227 0 7.23499C0 10.8277 2.91248 13.7402 6.5052 13.7402C7.88618 13.7402 9.16666 13.3099 10.2199 12.576L12.5773 14.9334C13.0264 15.3825 13.7545 15.3825 14.2036 14.9334C14.6527 14.4843 14.6527 13.7562 14.2036 13.3071L11.8462 10.9497C12.5801 9.89646 13.0104 8.61598 13.0104 7.23499C13.0104 3.64227 10.0979 0.729797 6.5052 0.729797Z" fill="#26273A"/>
</svg>
