<svg width="375" height="812" viewBox="0 0 375 812" fill="none" xmlns="http://www.w3.org/2000/svg">
<g style="mix-blend-mode:overlay" opacity="0.3">
<mask id="mask0_92_3643" style="mask-type:alpha" maskUnits="userSpaceOnUse" x="0" y="0" width="375" height="812">
<rect width="375" height="812" rx="40" fill="url(#paint0_linear_92_3643)"/>
</mask>
<g mask="url(#mask0_92_3643)">
<path d="M-528.444 6.42829C40.7969 -544.309 205.124 225.795 544.356 -243.934" stroke="black" stroke-width="1.9677" stroke-miterlimit="10" stroke-linecap="round" stroke-linejoin="round" stroke-dasharray="1 1"/>
<path d="M-526.107 19.1561C56.0482 -548.651 220.129 222.351 549.152 -221.773" stroke="black" stroke-width="2.0323" stroke-miterlimit="10" stroke-linecap="round" stroke-linejoin="round" stroke-dasharray="1 1"/>
<path d="M-523.893 31.7342C71.3007 -552.994 235.259 218.757 553.95 -199.462" stroke="black" stroke-width="2.0968" stroke-miterlimit="10" stroke-linecap="round" stroke-linejoin="round" stroke-dasharray="1 1"/>
<path d="M-521.556 44.4619C86.5521 -557.336 250.387 215.313 558.869 -177.151" stroke="black" stroke-width="2.1613" stroke-miterlimit="10" stroke-linecap="round" stroke-linejoin="round" stroke-dasharray="1 1"/>
<path d="M-519.219 57.0398C101.927 -561.679 265.516 211.719 563.666 -154.99" stroke="black" stroke-width="2.2258" stroke-miterlimit="10" stroke-linecap="round" stroke-linejoin="round" stroke-dasharray="1 1"/>
<path d="M-516.882 69.7676C117.179 -566.021 280.645 208.425 568.587 -132.529" stroke="black" stroke-width="2.2903" stroke-miterlimit="10" stroke-linecap="round" stroke-linejoin="round" stroke-dasharray="1 1"/>
<path d="M-514.668 82.3454C132.431 -570.363 295.651 204.831 573.26 -110.368" stroke="black" stroke-width="2.3548" stroke-miterlimit="10" stroke-linecap="round" stroke-linejoin="round" stroke-dasharray="1 1"/>
<path d="M-512.331 95.0732C147.683 -574.556 310.78 201.387 578.18 -88.0566" stroke="black" stroke-width="2.4194" stroke-miterlimit="10" stroke-linecap="round" stroke-linejoin="round" stroke-dasharray="1 1"/>
<path d="M-509.994 107.651C163.058 -579.048 325.909 197.794 582.977 -65.8954" stroke="black" stroke-width="2.4839" stroke-miterlimit="10" stroke-linecap="round" stroke-linejoin="round" stroke-dasharray="1 1"/>
<path d="M-507.78 120.229C178.31 -583.391 341.038 194.35 587.897 -43.5843" stroke="black" stroke-width="2.5484" stroke-miterlimit="10" stroke-linecap="round" stroke-linejoin="round" stroke-dasharray="1 1"/>
<path d="M-505.443 132.957C193.562 -587.733 356.044 190.756 592.694 -21.2733" stroke="black" stroke-width="2.6129" stroke-miterlimit="10" stroke-linecap="round" stroke-linejoin="round" stroke-dasharray="1 1"/>
<path d="M-503.106 145.535C208.814 -592.075 371.173 187.162 597.491 0.887999" stroke="black" stroke-width="2.6774" stroke-miterlimit="10" stroke-linecap="round" stroke-linejoin="round" stroke-dasharray="1 1"/>
<path d="M-500.769 158.263C224.189 -596.418 386.302 183.868 602.412 23.3488" stroke="black" stroke-width="2.7419" stroke-miterlimit="10" stroke-linecap="round" stroke-linejoin="round" stroke-dasharray="1 1"/>
<path d="M-498.555 170.841C239.317 -600.76 401.307 180.274 607.208 45.51" stroke="black" stroke-width="2.8065" stroke-miterlimit="10" stroke-linecap="round" stroke-linejoin="round" stroke-dasharray="1 1"/>
<path d="M-496.218 183.568C254.693 -605.103 416.56 176.83 612.005 67.8208" stroke="black" stroke-width="2.871" stroke-miterlimit="10" stroke-linecap="round" stroke-linejoin="round" stroke-dasharray="1 1"/>
<path d="M-493.881 196.147C269.944 -609.445 431.688 173.237 616.925 89.9823" stroke="black" stroke-width="2.9355" stroke-miterlimit="10" stroke-linecap="round" stroke-linejoin="round" stroke-dasharray="1 1"/>
<path d="M-491.544 208.874C285.319 -613.787 446.817 169.793 621.845 112.443" stroke="black" stroke-width="3" stroke-miterlimit="10" stroke-linecap="round" stroke-linejoin="round" stroke-dasharray="1 1"/>
<path d="M-671 -97.1905C-297.328 -326.29 -257.723 985.417 565.02 -157.834" stroke="black" stroke-miterlimit="10" stroke-linecap="round" stroke-linejoin="round"/>
<path d="M-670.016 -78.7728C-284.29 -344.109 -234.722 972.988 568.34 -133.876" stroke="black" stroke-width="0.9758" stroke-miterlimit="10" stroke-linecap="round" stroke-linejoin="round"/>
<path d="M-669.155 -60.3549C-271.253 -362.077 -211.967 960.411 571.415 -109.918" stroke="black" stroke-width="0.9516" stroke-miterlimit="10" stroke-linecap="round" stroke-linejoin="round"/>
<path d="M-668.171 -41.9372C-258.091 -379.896 -188.966 947.982 574.736 -86.1099" stroke="black" stroke-width="0.9274" stroke-miterlimit="10" stroke-linecap="round" stroke-linejoin="round"/>
<path d="M-667.187 -23.3696C-245.054 -397.565 -165.965 935.704 577.934 -62.002" stroke="black" stroke-width="0.9032" stroke-miterlimit="10" stroke-linecap="round" stroke-linejoin="round"/>
<path d="M-666.326 -4.95173C-232.016 -415.534 -143.21 923.275 581.01 -38.0439" stroke="black" stroke-width="0.879" stroke-miterlimit="10" stroke-linecap="round" stroke-linejoin="round"/>
<path d="M-665.342 13.466C-218.855 -433.353 -120.209 910.847 584.33 -14.0859" stroke="black" stroke-width="0.8548" stroke-miterlimit="10" stroke-linecap="round" stroke-linejoin="round"/>
<path d="M-664.358 32.0335C-205.694 -451.172 -97.2085 898.569 587.528 10.022" stroke="black" stroke-width="0.8306" stroke-miterlimit="10" stroke-linecap="round" stroke-linejoin="round"/>
<path d="M-663.497 50.4514C-192.779 -468.99 -74.4535 886.14 590.603 33.8305" stroke="black" stroke-width="0.8065" stroke-miterlimit="10" stroke-linecap="round" stroke-linejoin="round"/>
<path d="M-662.513 68.8691C-179.618 -486.809 -51.4527 873.712 593.924 57.7885" stroke="black" stroke-width="0.7823" stroke-miterlimit="10" stroke-linecap="round" stroke-linejoin="round"/>
<path d="M-661.529 87.2868C-166.457 -504.778 -28.452 861.134 597.122 81.7465" stroke="black" stroke-width="0.7581" stroke-miterlimit="10" stroke-linecap="round" stroke-linejoin="round"/>
<path d="M-660.668 105.854C-153.542 -522.447 -5.6973 848.855 600.197 105.854" stroke="black" stroke-width="0.7339" stroke-miterlimit="10" stroke-linecap="round" stroke-linejoin="round"/>
<path d="M-659.684 124.272C-140.381 -540.266 17.3039 836.427 603.518 129.813" stroke="black" stroke-width="0.7097" stroke-miterlimit="10" stroke-linecap="round" stroke-linejoin="round"/>
<path d="M-658.7 142.69C-127.22 -558.235 40.3047 823.999 606.716 153.771" stroke="black" stroke-width="0.6855" stroke-miterlimit="10" stroke-linecap="round" stroke-linejoin="round"/>
<path d="M-657.839 161.258C-114.306 -575.904 63.0595 811.72 609.791 177.729" stroke="black" stroke-width="0.6613" stroke-miterlimit="10" stroke-linecap="round" stroke-linejoin="round"/>
<path d="M-656.855 179.675C-101.144 -593.723 86.0606 799.292 613.112 201.687" stroke="black" stroke-width="0.6371" stroke-miterlimit="10" stroke-linecap="round" stroke-linejoin="round"/>
<path d="M-655.871 198.093C-88.1065 -611.691 108.938 786.864 616.31 225.645" stroke="black" stroke-width="0.6129" stroke-miterlimit="10" stroke-linecap="round" stroke-linejoin="round"/>
<path d="M-655.01 216.511C-75.0688 -629.51 131.816 774.286 619.385 249.603" stroke="black" stroke-width="0.5887" stroke-miterlimit="10" stroke-linecap="round" stroke-linejoin="round"/>
<path d="M-654.026 235.079C-61.9076 -647.329 154.817 762.007 622.706 273.711" stroke="black" stroke-width="0.5645" stroke-miterlimit="10" stroke-linecap="round" stroke-linejoin="round"/>
<path d="M-653.042 253.496C-48.7463 -665.148 177.818 749.579 625.905 297.519" stroke="black" stroke-width="0.5403" stroke-miterlimit="10" stroke-linecap="round" stroke-linejoin="round"/>
<path d="M-652.181 271.914C-35.7085 -682.967 200.696 737.151 629.102 321.478" stroke="black" stroke-width="0.5161" stroke-miterlimit="10" stroke-linecap="round" stroke-linejoin="round"/>
<path d="M-651.197 290.482C-22.6707 -700.785 223.574 724.872 632.3 345.585" stroke="black" stroke-width="0.4919" stroke-miterlimit="10" stroke-linecap="round" stroke-linejoin="round"/>
<path d="M-650.213 308.899C-9.50988 -718.604 246.574 712.444 635.498 369.543" stroke="black" stroke-width="0.4677" stroke-miterlimit="10" stroke-linecap="round" stroke-linejoin="round"/>
<path d="M-649.352 327.317C3.52814 -736.423 269.452 700.016 638.573 393.502" stroke="black" stroke-width="0.4435" stroke-miterlimit="10" stroke-linecap="round" stroke-linejoin="round"/>
<path d="M-648.368 345.735C16.5656 -754.392 292.33 687.437 641.894 417.31" stroke="black" stroke-width="0.4194" stroke-miterlimit="10" stroke-linecap="round" stroke-linejoin="round"/>
<path d="M-647.384 364.303C29.7268 -772.061 315.331 675.159 645.092 441.418" stroke="black" stroke-width="0.3952" stroke-miterlimit="10" stroke-linecap="round" stroke-linejoin="round"/>
<path d="M-646.523 382.72C42.7645 -789.88 338.209 662.731 648.29 465.376" stroke="black" stroke-width="0.371" stroke-miterlimit="10" stroke-linecap="round" stroke-linejoin="round"/>
<path d="M-645.539 401.138C55.8024 -807.848 361.086 650.303 651.488 489.334" stroke="black" stroke-width="0.3468" stroke-miterlimit="10" stroke-linecap="round" stroke-linejoin="round"/>
<path d="M-644.555 419.706C68.9637 -825.517 384.088 638.024 654.686 513.442" stroke="black" stroke-width="0.3226" stroke-miterlimit="10" stroke-linecap="round" stroke-linejoin="round"/>
<path d="M-643.694 438.123C82.0014 -843.486 406.966 625.596 657.761 537.25" stroke="black" stroke-width="0.2984" stroke-miterlimit="10" stroke-linecap="round" stroke-linejoin="round"/>
<path d="M-642.71 456.541C95.0392 -861.305 429.843 613.168 661.082 561.208" stroke="black" stroke-width="0.2742" stroke-miterlimit="10" stroke-linecap="round" stroke-linejoin="round"/>
<path d="M-641.726 474.959C108.2 -879.124 452.844 600.739 664.28 585.166" stroke="black" stroke-width="0.25" stroke-miterlimit="10" stroke-linecap="round" stroke-linejoin="round"/>
<path d="M530.826 529.764C125.912 708.701 100.206 295.723 -516.513 627.393" stroke="black" stroke-width="3" stroke-miterlimit="10" stroke-linecap="round" stroke-linejoin="round" stroke-dasharray="1 1"/>
<path d="M532.302 516.137C115.211 710.048 84.7075 281.348 -517.62 602.386" stroke="black" stroke-width="2.9355" stroke-miterlimit="10" stroke-linecap="round" stroke-linejoin="round" stroke-dasharray="1 1"/>
<path d="M533.655 502.511C104.264 711.396 69.2095 266.973 -518.85 577.23" stroke="black" stroke-width="2.871" stroke-miterlimit="10" stroke-linecap="round" stroke-linejoin="round" stroke-dasharray="1 1"/>
<path d="M535.131 488.885C93.4405 712.594 53.7118 252.598 -520.08 552.075" stroke="black" stroke-width="2.8065" stroke-miterlimit="10" stroke-linecap="round" stroke-linejoin="round" stroke-dasharray="1 1"/>
<path d="M536.484 475.109C82.6164 713.791 38.2136 238.073 -521.31 526.918" stroke="black" stroke-width="2.7419" stroke-miterlimit="10" stroke-linecap="round" stroke-linejoin="round" stroke-dasharray="1 1"/>
<path d="M537.96 461.483C71.7924 715.139 22.7157 223.698 -522.417 501.912" stroke="black" stroke-width="2.6774" stroke-miterlimit="10" stroke-linecap="round" stroke-linejoin="round" stroke-dasharray="1 1"/>
<path d="M539.436 447.857C60.9688 716.487 7.21815 209.324 -523.524 476.906" stroke="black" stroke-width="2.6129" stroke-miterlimit="10" stroke-linecap="round" stroke-linejoin="round" stroke-dasharray="1 1"/>
<path d="M540.789 434.23C50.1446 717.835 -8.28 194.949 -524.754 451.75" stroke="black" stroke-width="2.5484" stroke-miterlimit="10" stroke-linecap="round" stroke-linejoin="round" stroke-dasharray="1 1"/>
<path d="M542.265 420.454C39.3207 719.033 -23.655 180.424 -525.861 426.594" stroke="black" stroke-width="2.4839" stroke-miterlimit="10" stroke-linecap="round" stroke-linejoin="round" stroke-dasharray="1 1"/>
<path d="M543.74 406.828C28.4966 720.38 -39.153 166.049 -526.968 401.438" stroke="black" stroke-width="2.4194" stroke-miterlimit="10" stroke-linecap="round" stroke-linejoin="round" stroke-dasharray="1 1"/>
<path d="M545.094 393.202C17.673 721.728 -54.6506 151.675 -528.198 376.431" stroke="black" stroke-width="2.3548" stroke-miterlimit="10" stroke-linecap="round" stroke-linejoin="round" stroke-dasharray="1 1"/>
<path d="M546.57 379.576C6.84889 722.926 -70.1487 137.299 -529.428 351.425" stroke="black" stroke-width="2.2903" stroke-miterlimit="10" stroke-linecap="round" stroke-linejoin="round" stroke-dasharray="1 1"/>
<path d="M547.923 365.95C-4.09775 724.423 -85.6462 122.925 -530.535 326.269" stroke="black" stroke-width="2.2258" stroke-miterlimit="10" stroke-linecap="round" stroke-linejoin="round" stroke-dasharray="1 1"/>
<path d="M549.399 352.174C-14.799 725.471 -101.144 108.4 -531.765 301.113" stroke="black" stroke-width="2.1613" stroke-miterlimit="10" stroke-linecap="round" stroke-linejoin="round" stroke-dasharray="1 1"/>
<path d="M550.875 338.548C-25.6228 726.819 -116.642 94.0253 -532.872 276.107" stroke="black" stroke-width="2.0968" stroke-miterlimit="10" stroke-linecap="round" stroke-linejoin="round" stroke-dasharray="1 1"/>
<path d="M552.227 324.921C-36.5701 728.166 -132.141 79.6502 -534.102 250.951" stroke="black" stroke-width="2.0323" stroke-miterlimit="10" stroke-linecap="round" stroke-linejoin="round" stroke-dasharray="1 1"/>
<path d="M553.704 311.295C-47.3937 729.514 -147.638 65.1255 -535.209 225.795" stroke="black" stroke-width="1.9677" stroke-miterlimit="10" stroke-linecap="round" stroke-linejoin="round" stroke-dasharray="1 1"/>
<path d="M555.18 297.519C-58.2176 730.712 -163.136 50.7507 -536.316 200.788" stroke="black" stroke-width="1.9032" stroke-miterlimit="10" stroke-linecap="round" stroke-linejoin="round" stroke-dasharray="1 1"/>
<path d="M556.532 283.893C-69.0418 732.06 -178.511 36.3759 -537.546 175.632" stroke="black" stroke-width="1.8387" stroke-miterlimit="10" stroke-linecap="round" stroke-linejoin="round" stroke-dasharray="1 1"/>
<path d="M558.008 270.267C-79.8657 733.407 -194.009 22.001 -538.653 150.626" stroke="black" stroke-width="1.7742" stroke-miterlimit="10" stroke-linecap="round" stroke-linejoin="round" stroke-dasharray="1 1"/>
<path d="M559.485 256.641C-90.5664 734.755 -209.507 7.47642 -539.76 125.47" stroke="black" stroke-width="1.7097" stroke-miterlimit="10" stroke-linecap="round" stroke-linejoin="round" stroke-dasharray="1 1"/>
<path d="M560.838 242.865C-101.513 735.953 -225.004 -6.89858 -540.989 100.314" stroke="black" stroke-width="1.6452" stroke-miterlimit="10" stroke-linecap="round" stroke-linejoin="round" stroke-dasharray="1 1"/>
<path d="M562.314 229.239C-112.337 737.151 -240.502 -21.423 -542.22 75.1582" stroke="black" stroke-width="1.5806" stroke-miterlimit="10" stroke-linecap="round" stroke-linejoin="round" stroke-dasharray="1 1"/>
<path d="M563.667 215.613C-123.161 738.498 -256 -35.7979 -543.327 50.1518" stroke="black" stroke-width="1.5161" stroke-miterlimit="10" stroke-linecap="round" stroke-linejoin="round" stroke-dasharray="1 1"/>
<path d="M565.143 201.986C-133.985 739.846 -271.498 -50.1728 -544.556 25.1455" stroke="black" stroke-width="1.4516" stroke-miterlimit="10" stroke-linecap="round" stroke-linejoin="round" stroke-dasharray="1 1"/>
<path d="M566.618 188.36C-144.809 741.194 -286.997 -64.5477 -545.664 -0.0105511" stroke="black" stroke-width="1.3871" stroke-miterlimit="10" stroke-linecap="round" stroke-linejoin="round" stroke-dasharray="1 1"/>
<path d="M567.972 174.584C-155.633 742.392 -302.494 -78.9224 -546.894 -25.1663" stroke="black" stroke-width="1.3226" stroke-miterlimit="10" stroke-linecap="round" stroke-linejoin="round" stroke-dasharray="1 1"/>
<path d="M569.447 160.958C-166.457 743.739 -317.992 -93.447 -548.001 -50.1726" stroke="black" stroke-width="1.2581" stroke-miterlimit="10" stroke-linecap="round" stroke-linejoin="round" stroke-dasharray="1 1"/>
<path d="M570.923 147.332C-177.281 745.087 -333.49 -107.822 -549.231 -75.3287" stroke="black" stroke-width="1.1935" stroke-miterlimit="10" stroke-linecap="round" stroke-linejoin="round" stroke-dasharray="1 1"/>
<path d="M572.277 133.706C-188.105 746.435 -348.988 -122.197 -550.338 -100.335" stroke="black" stroke-width="1.129" stroke-miterlimit="10" stroke-linecap="round" stroke-linejoin="round" stroke-dasharray="1 1"/>
<path d="M573.752 119.93C-198.929 747.633 -364.363 -136.721 -551.568 -125.641" stroke="black" stroke-width="1.0645" stroke-miterlimit="10" stroke-linecap="round" stroke-linejoin="round" stroke-dasharray="1 1"/>
<path d="M575.105 106.304C-209.876 748.98 -379.984 -151.096 -552.798 -150.647" stroke="black" stroke-miterlimit="10" stroke-linecap="round" stroke-linejoin="round" stroke-dasharray="1 1"/>
</g>
</g>
<defs>
<linearGradient id="paint0_linear_92_3643" x1="187.5" y1="0" x2="187.5" y2="812" gradientUnits="userSpaceOnUse">
<stop stop-color="#2D9CDB"/>
<stop offset="1" stop-color="#2F80ED"/>
</linearGradient>
</defs>
</svg>
